<?xml version="1.0" standalone="no"?>
<!DOCTYPE svg PUBLIC "-//W3C//DTD SVG 20010904//EN"
 "http://www.w3.org/TR/2001/REC-SVG-20010904/DTD/svg10.dtd">
<svg version="1.0" xmlns="http://www.w3.org/2000/svg"
 width="16.000000pt" height="16.000000pt" viewBox="0 0 16.000000 16.000000"
 preserveAspectRatio="xMidYMid meet">
<metadata>
Created by potrace 1.11, written by Peter Selinger 2001-2013
</metadata>
<g transform="translate(0.000000,16.000000) scale(0.002286,-0.002286)"
fill="#000000" stroke="none">
<path d="M2815 5763 c-132 -33 -227 -149 -229 -282 -2 -111 19 -166 86 -233
56 -56 118 -81 206 -84 129 -5 227 55 283 173 29 60 31 72 27 142 -7 129 -78
226 -198 272 -47 18 -128 23 -175 12z"/>
<path d="M4257 5753 c-27 -9 -71 -36 -97 -60 -165 -148 -130 -404 68 -504 61
-30 170 -35 234 -11 133 51 212 175 202 316 -8 98 -78 200 -170 246 -62 31
-169 37 -237 13z"/>
<path d="M5439 5161 c-136 -34 -243 -126 -307 -262 -54 -116 -76 -252 -76
-469 1 -103 4 -168 19 -310 13 -122 48 -321 90 -515 79 -358 89 -418 88 -535
0 -66 -5 -97 -23 -138 -41 -94 -155 -173 -250 -172 -56 1 -112 32 -170 98 -53
57 -83 105 -251 396 -238 413 -476 593 -784 594 -92 0 -200 -21 -273 -54 -159
-73 -354 -250 -541 -494 -222 -288 -289 -363 -355 -397 -62 -32 -157 -2 -197
63 -48 79 -58 331 -24 673 23 235 26 533 8 672 -43 322 -181 481 -428 494 -95
4 -150 -9 -256 -64 -156 -79 -294 -176 -468 -328 -126 -110 -601 -589 -601
-606 0 -21 19 -31 105 -51 142 -34 210 -40 418 -40 l178 0 -6 -55 c-3 -31 -10
-90 -15 -131 -5 -41 -12 -100 -15 -130 -3 -30 -7 -75 -10 -100 -21 -206 -27
-578 -13 -710 16 -145 54 -300 110 -440 38 -98 173 -366 205 -408 71 -94 262
-211 403 -247 103 -27 109 -27 225 -28 158 -1 255 24 425 108 284 140 505 330
761 655 37 48 173 238 201 281 22 34 114 129 125 129 11 0 57 -92 113 -225
277 -660 512 -916 940 -1025 106 -27 167 -33 315 -33 362 1 668 124 880 352
46 50 143 183 165 226 8 17 19 37 26 45 17 22 85 196 101 258 7 28 20 78 28
110 20 74 72 352 80 428 4 32 9 67 10 76 3 15 9 71 20 188 28 303 23 757 -11
975 -11 70 -14 89 -29 160 -73 354 -211 628 -405 808 -173 160 -358 222 -531
178z"/>
</g>
</svg>
